<svg xmlns="http://www.w3.org/2000/svg" viewBox="0 0 100 100">
<style>
@media (max-width: 50px) {
    path { display: none }
    rect { stroke-width: 3px }
}
</style>
<circle cx="50" cy="50" r="45" fill="#fff" stroke="#3c790a" stroke-width="10"/>
<rect width="22" height="30" x="25" y="35" stroke="#3c790a" stroke-width="1" fill="none"/>
<rect width="22" height="30" x="53" y="35" stroke="#3c790a" stroke-width="1" fill="none"/>
<g fill="#3c790a">
  <path d="M29.7023 47.84v-7.824c.7902.002 1.5805-.0043 2.3706.0036.818.0293 1.6684.223 2.317.7478.4698.369.8013.8908.9896 1.454.2663.7735.2912 1.6102.2105 2.418-.092.8544-.4143 1.72-1.0558 2.3142-.6186.5837-1.4767.8444-2.3124.8806-.5805.0122-1.1614.003-1.742.006h-.7775zm1.776-1.428c.384.005.7767 0 1.14-.1404.4582-.1548.8098-.5417.9747-.9902.2355-.608.2554-1.275.1996-1.9173-.0545-.4665-.1768-.9515-.4833-1.3198-.2275-.2788-.5553-.4618-.9062-.5327-.3026-.074-.6153-.0685-.9247-.0675v4.968z"/>
  <path d="M37.1617 47.84v-7.824h5.184v1.488h-3.408v1.572h2.892v1.476h-2.892v1.8h3.528v1.488h-5.304z"/>
  <path d="M32.4623 59.984c-.6155.005-1.2456-.1796-1.7154-.588-.599-.5072-.934-1.2606-1.088-2.0164-.1497-.7797-.159-1.584-.0636-2.371.1035-.8153.4044-1.6387.9982-2.2258.5355-.5265 1.3136-.7483 2.052-.7018.708.0334 1.4173.3405 1.8674.8988.4836.5764.7106 1.3218.8164 2.0552.0974.7865.086 1.592-.0762 2.3693-.1532.7025-.4397 1.4066-.9768 1.904-.3968.3806-.927.6054-1.472.658-.1135.012-.2278.0177-.342.0177zm0-1.368c.3867.0093.7582-.2116.9487-.5454.3192-.5647.3892-1.2283.4052-1.866.0083-.7035-.016-1.4363-.3186-2.0848-.1332-.279-.355-.5327-.662-.619-.4163-.129-.9363-.0455-1.215.3133-.3218.4097-.4265.9417-.482 1.4476-.051.6176-.0498 1.244.0504 1.8567.0878.44.2134.9102.5482 1.2307.1926.1825.4635.2664.725.267z"/>
  <path d="M37.1617 59.84v-7.824h5.184v1.488h-3.408v1.572h2.892v1.476h-2.892v1.8h3.528v1.488h-5.304z"/>
  <path d="M57.6183 47.84v-7.824c.7902.002 1.5805-.0043 2.3706.0036.818.0293 1.6684.223 2.317.7478.4698.369.8013.8908.9896 1.454.2663.7735.2912 1.6102.2105 2.418-.092.8544-.4143 1.72-1.0558 2.3142-.6186.5837-1.4767.8444-2.3124.8806-.5805.0122-1.1614.003-1.742.006h-.7775zm1.776-1.428c.384.005.7767 0 1.14-.1404.4582-.1548.8098-.5417.9747-.9902.2355-.608.2554-1.275.1996-1.9173-.0545-.4665-.1768-.9515-.4833-1.3198-.2275-.2788-.5553-.4618-.9062-.5327-.3026-.074-.6153-.0685-.9247-.0675v4.968z"/>
  <path d="M67.5617 47.984c-.5028.0012-1.0123-.061-1.483-.2447-.2768-.1085-.5383-.26-.7614-.4572-.295-.2636-.513-.6212-.5803-1.0136-.047-.2786-.0463-.568.0276-.842.0448-.171.1204-.3333.2198-.4793.1967-.3007.4796-.535.7846-.7198.122-.0742.2482-.1412.3767-.2032-.0243-.0862-.105-.137-.1754-.1836-.0673-.0443-.14-.0856-.189-.1513-.2402-.2152-.468-.457-.604-.7534-.0754-.164-.113-.3425-.135-.5208-.054-.468.0512-.9585.319-1.3488.1017-.15.222-.2876.362-.403.3167-.2633.708-.423 1.1082-.5082.3146-.0655.6377-.0888.9587-.0757.491.0213.9843.1424 1.409.3953.3543.2098.6363.5417.778.929.141.363.1852.769.0935 1.1495-.047.196-.1342.3818-.2555.5427-.2128.293-.4828.544-.7895.7365-.003.054.0498.0838.0935.1005.0514.021.1078.0358.149.075.297.1717.5818.3777.7948.65.149.1892.2518.412.317.643.121.4364.0974.915-.0807 1.3325-.1515.3497-.4218.6383-.7377.8468-.1954.1302-.41.2292-.632.3046-.4385.1522-.9063.198-1.368.1996zm.528-4.584c.226-.1977.4166-.445.5137-.7317.047-.1374.0677-.2833.0622-.4284.0008-.3196-.1706-.6405-.4516-.7986-.1264-.0688-.2676-.1068-.4092-.1285-.2706-.0387-.554-.002-.8013.116-.1922.096-.3506.2724-.3972.4853-.034.1426-.0414.2924-.0114.4365.0386.1962.1482.3818.3157.4945.3562.254.7694.4105 1.179.5547zm-.48 3.36c.2632-.0003.5343-.0393.7677-.1676.147-.082.2772-.2037.346-.3594.111-.2396.1192-.5274.012-.7697-.1007-.1894-.2752-.3257-.4572-.432-.098-.0567-.1985-.1094-.3007-.158-.331-.1402-.6693-.262-1.0038-.3933-.2333.1807-.4594.384-.603.6458-.16.2918-.1904.6567-.0637.9664.0587.144.1573.2712.2825.3637.288.223.662.305 1.0202.304z"/>
  <path d="M60.1743 59.984c-.6955.0012-1.412-.1095-2.0205-.465-.2986-.1648-.579-.3646-.8235-.603l.792-1.116c.3286.2568.6762.5064 1.0734.6444.4748.1487 1.005.1586 1.4738-.0176.3295-.1265.6245-.3935.6956-.7508.091-.4085.0094-.8966-.3383-1.165-.414-.339-.988-.363-1.4944-.2776-.2885.0623-.5533.2014-.81.3426l-.78-.504.204-3.852h4.668v1.488h-3.144l-.132 1.428c.745-.2745 1.5927-.2276 2.32.08.4837.2062.8946.5886 1.1013 1.076.2228.4955.2478 1.0638.1474 1.5926-.1598.769-.711 1.4307-1.4182 1.7625-.47.2273-.9934.3377-1.5145.337z"/>
  <path d="M68.0657 59.84v-1.824h-3.672v-1.212l3.18-4.584h2.136v4.452h.96v1.344h-.96v1.824h-1.644zm-1.968-3.168h1.968c.0044-.9297-.0196-1.8607.0495-2.7888.0292-.085-.001-.254-.0738-.1024-.2647.44-.5576.8624-.8335 1.2953l-1.1103 1.596z"/>
</g>
</svg>
